<?xml version="1.0" encoding="UTF-8"?>
<!DOCTYPE svg PUBLIC "-//W3C//DTD SVG 1.1//EN" "http://www.w3.org/Graphics/SVG/1.1/DTD/svg11.dtd">
<!-- Creator: CorelDRAW -->
<svg xmlns="http://www.w3.org/2000/svg" xml:space="preserve" width="193.597mm" height="60.9589mm" version="1.1" style="shape-rendering:geometricPrecision; text-rendering:geometricPrecision; image-rendering:optimizeQuality; fill-rule:evenodd; clip-rule:evenodd"
viewBox="0 0 22181.79 6984.5"
 xmlns:xlink="http://www.w3.org/1999/xlink"
 xmlns:xodm="http://www.corel.com/coreldraw/odm/2003">
 <defs>
  <style type="text/css">
   <![CDATA[
    .str0 {stroke:#0E1F3D;stroke-width:8.73;stroke-miterlimit:22.9256}
    .str1 {stroke:red;stroke-width:8.73;stroke-miterlimit:22.9256}
    .fil0 {fill:#0E1F3D;fill-rule:nonzero}
    .fil1 {fill:red;fill-rule:nonzero}
   ]]>
  </style>
    <clipPath id="id0">
     <rect x="4683.67" width="4729.07" height="5313.46"/>
    </clipPath>
 </defs>
 <g id="Layer_x0020_1">
  <metadata id="CorelCorpID_0Corel-Layer"/>
  <g id="_1455740659728">
   <g style="clip-path:url(#id0)">
    <image x="4683.67" y="0.02" width="4729.07" height="5313.44" xlink:href="globarel_Images\globarel_ImgID1.png"/>
   </g>
   <path class="fil0 str0" d="M833.86 3877.22c-186.77,-91.64 -331.09,-218.81 -431.94,-383.78 -99.65,-163.86 -150.05,-344.87 -150.05,-544.2 0,-303.62 114.57,-564.84 343.71,-783.65 227.96,-218.81 521.27,-328.83 878.73,-328.83 292.14,0 545.32,71.05 759.57,213.1l649.61 0c96.24,0 152.36,2.33 167.25,8.04 16.04,5.72 27.52,14.87 33.24,28.63 13.76,20.6 20.65,56.13 20.65,107.69 0,58.45 -5.76,98.52 -17.2,121.45 -5.73,10.32 -18.32,19.48 -34.36,26.36 -17.21,6.83 -73.33,10.27 -169.57,10.27l-399.83 0c124.84,160.42 187.9,366.62 187.9,617.53 0,285.3 -108.85,530.48 -327.7,734.41 -218.82,202.78 -512.11,304.74 -881.02,304.74 -151.21,0 -305.9,-22.93 -465.15,-67.6 -97.37,85.92 -163.81,160.41 -199.33,224.57 -34.36,64.16 -51.57,118.01 -51.57,162.69 0,38.92 18.32,75.61 55.01,111.13 37.8,36.64 109.97,61.84 216.54,77.88 62.99,9.17 219.98,18.38 470.87,25.21 460.54,11.48 759.57,28.64 895.89,50.45 208.54,28.64 374.67,106.52 498.4,231.41 124.89,126 186.73,279.53 186.73,463.99 0,252.06 -118,490.34 -355.14,711.49 -349.41,326.49 -804.29,490.34 -1365.65,490.34 -431.94,0 -796.24,-97.41 -1092.99,-292.18 -168.41,-112.24 -252.06,-229.13 -252.06,-349.41 0,-53.85 12.6,-107.69 36.69,-161.53 37.8,-82.48 116.85,-198.22 234.85,-345.98 16.04,-20.65 129.45,-140.93 342.54,-363.19 -116.85,-69.88 -198.16,-131.78 -246.28,-186.77 -48.13,-54.96 -72.22,-118.01 -72.22,-187.9 0,-79.05 32.08,-170.69 95.13,-277.27 63.01,-105.4 209.65,-255.45 438.78,-449.11zm584.28 -1875.48c-164.97,0 -303.57,65.33 -414.75,197.11 -111.13,131.72 -167.25,333.37 -167.25,604.91 0,352.86 75.61,625.52 227.97,819.14 115.72,147.8 262.38,221.13 441.11,221.13 169.57,0 309.34,-63.01 418.18,-190.18 108.8,-127.16 163.81,-326.55 163.81,-599.19 0,-354.02 -76.77,-631.29 -230.3,-831.77 -114.57,-147.82 -260.06,-221.15 -438.78,-221.15zm-615.23 3004c-105.37,113.41 -184.46,219.98 -237.14,318.5 -53.84,98.52 -80.2,189.05 -80.2,271.54 0,106.52 65.33,200.5 194.77,281.81 222.26,138.66 545.36,207.37 966.94,207.37 402.15,0 698.9,-71.04 889.06,-213.09 191.33,-142.04 286.42,-293.29 286.42,-454.83 0,-116.85 -57.29,-199.38 -170.69,-248.62 -116.89,-49.28 -346.03,-77.92 -689.73,-87.08 -502.95,-13.71 -889,-38.97 -1159.43,-75.61z"/>
   <path class="fil0 str0" d="M4363.97 228.28l0 4083.18c0,191.33 13.76,318.5 41.25,380.38 28.64,61.84 71.05,109.96 129.5,142.05 57.28,32.08 166.13,48.12 324.22,48.12l0 123.72 -1505.42 0 0 -123.72c140.93,0 237.13,-14.88 288.7,-43.53 51.56,-28.63 91.64,-76.77 121.44,-143.21 28.64,-66.49 43.53,-194.77 43.53,-383.82l0 -2797.74c0,-343.7 -8,-554.52 -22.88,-632.44 -16.04,-79.05 -41.28,-132.89 -75.64,-161.53 -34.36,-28.64 -79.05,-43.52 -132.89,-43.52 -57.29,0 -130.62,18.31 -219.98,53.84l-57.29 -123.73 914.26 -378.06 151.21 0z"/>
   <path class="fil0 str0" d="M10233.65 2462.34c296.7,-417.03 617.53,-625.57 961.22,-625.57 315.05,0 589.99,135.21 824.89,404.43 234.86,269.26 351.71,638.16 351.71,1105.59 0,545.35 -181.01,985.31 -543.04,1318.68 -311.66,286.42 -658.76,429.63 -1041.43,429.63 -178.73,0 -359.74,-32.08 -544.18,-97.37 -185.62,-65.32 -373.51,-163.85 -566.01,-294.46l0 -3175.84c0,-348.26 -8,-562.52 -25.2,-642.72 -17.15,-81.33 -43.52,-135.17 -79.05,-164.97 -36.64,-28.64 -81.32,-43.52 -135.17,-43.52 -63.04,0 -140.93,18.31 -236.01,53.84l-47.01 -123.73 928.02 -378.06 151.25 0 0 2234.06zm0 213.09l0 1834.24c114.57,111.12 232.52,195.88 353.97,253.17 121.45,56.17 246.34,84.81 374.67,84.81 202.78,0 392.94,-111.13 568.23,-334.54 175.29,-223.41 263.49,-547.63 263.49,-973.83 0,-392.99 -88.2,-694.28 -263.49,-905.09 -175.29,-210.82 -374.62,-316.22 -599.19,-316.22 -118.01,0 -237.14,29.8 -355.14,90.53 -89.37,44.69 -203.94,134.04 -342.54,266.93z"/>
   <path class="fil0 str0" d="M14414.53 4558.91c-315.05,244.06 -513.27,386.1 -594.6,423.91 -120.33,56.17 -248.61,84.81 -384.95,84.81 -213.14,0 -388.43,-73.33 -525.88,-218.87 -137.48,-145.49 -206.25,-336.82 -206.25,-573.95 0,-150.08 33.24,-280.69 100.85,-389.55 91.64,-152.36 250.89,-295.57 477.75,-430.79 227.96,-134.04 604.91,-297.85 1133.07,-490.34l0 -120.29c0,-305.9 -48.12,-515.55 -145.49,-630.12 -97.4,-113.4 -238.34,-170.69 -423.9,-170.69 -139.77,0 -252.06,37.8 -334.54,114.57 -84.81,75.61 -127.17,162.64 -127.17,261.22l6.89 194.72c0,103.13 -26.36,183.34 -79.09,239.45 -52.68,56.12 -122.56,83.64 -207.37,83.64 -83.61,0 -152.38,-28.63 -205.05,-87.08 -52.73,-58.4 -79.05,-138.6 -79.05,-239.47 0,-192.44 98.52,-370.02 295.57,-531.59 197.05,-161.52 474.32,-241.74 830.62,-241.74 273.82,0 497.23,45.85 672.52,137.49 131.72,68.77 229.13,177.57 292.14,325.39 40.08,95.08 60.73,292.14 60.73,588.87l0 1042.6c0,292.14 5.72,471.98 17.2,537.31 11.43,66.44 29.76,109.96 54.96,132.89 26.36,21.76 56.17,33.25 89.36,33.25 36.69,0 67.61,-8.05 95.09,-22.93 47.01,-29.8 137.49,-111.13 272.71,-245.17l0 187.88c-252.06,337.99 -492.68,506.4 -721.81,506.4 -109.96,0 -198.16,-37.8 -263.49,-113.45 -65.29,-76.77 -98.52,-206.2 -100.81,-388.38zm0 -218.81l0 -1169.76c-340.26,134.06 -559.11,229.14 -658.76,285.31 -177.57,98.52 -304.79,200.49 -381.5,308.18 -76.77,107.68 -114.58,224.57 -114.58,351.74 0,161.53 48.08,294.42 145.49,400.99 96.24,106.52 208.5,159.25 334.54,159.25 170.69,0 395.27,-112.29 674.8,-335.7z"/>
   <path class="fil0 str0" d="M16483.91 1836.78l0 694.29c255.5,-462.82 517.83,-694.29 787.1,-694.29 121.44,0 222.25,37.81 302.45,113.45 80.22,74.44 120.29,161.53 120.29,260.06 0,88.2 -28.64,162.69 -85.93,223.41 -58.45,60.73 -127.17,90.48 -206.2,90.48 -77.94,0 -164.97,-38.91 -261.22,-116.85 -97.4,-77.88 -169.57,-116.85 -215.37,-116.85 -40.12,0 -83.64,22.93 -130.61,67.61 -99.68,91.64 -203.94,244.02 -310.5,454.83l0 1471.06c0,170.69 21.76,301.29 64.16,388.38 28.64,60.73 80.22,111.13 153.53,150.08 74.44,40.08 179.85,59.57 318.5,59.57l0 123.72 -1574.18 0 0 -123.72c155.8,0 271.54,-24.1 347.13,-73.33 56.12,-36.69 95.09,-92.81 116.85,-171.85 11.49,-37.8 17.21,-146.65 17.21,-325.38l0 -1189.2c0,-357.46 -6.89,-569.44 -21.76,-638.16 -14.93,-67.6 -41.25,-118 -80.22,-148.93 -38.96,-30.97 -88.2,-46.97 -145.48,-46.97 -69.89,0 -147.82,17.16 -234.91,50.4l-33.19 -123.72 931.41 -378.12 140.93 0z"/>
   <path class="fil0 str0" d="M18231.39 3087.86c-2.27,454.88 108.85,811.18 332.27,1070.07 223.41,257.78 486.91,387.27 789.37,387.27 200.49,0 375.78,-55.01 524.71,-165.01 148.93,-108.8 273.82,-300.14 374.62,-570.51l103.13 67.55c-46.97,309.35 -183.29,590.05 -409.03,840.94 -225.69,250.95 -508.68,376.95 -847.77,376.95 -368.9,0 -685.13,-143.21 -947.51,-430.79 -262.32,-287.53 -394.1,-673.65 -394.1,-1158.27 0,-524.72 135.21,-934.86 404.42,-1228.15 269.27,-294.46 607.2,-441.12 1013.95,-441.12 343.7,0 626.68,113.45 847.77,340.26 221.13,226.86 332.26,530.48 332.26,910.82l-2124.1 0zm0 -192.44l1422.93 0c-11.43,-197.05 -34.36,-335.71 -69.88,-415.92 -56.12,-124.84 -139.77,-223.37 -250.9,-294.41 -109.96,-72.17 -225.69,-107.69 -347.13,-107.69 -185.62,0 -351.75,72.16 -498.35,216.54 -146.65,144.32 -231.46,344.81 -256.66,601.47z"/>
   <path class="fil0 str0" d="M21682.47 228.28l0 4083.18c0,191.33 13.76,318.5 41.24,380.38 28.64,61.84 71.05,109.96 129.5,142.05 57.29,32.08 166.14,48.12 324.22,48.12l0 123.72 -1505.42 0 0 -123.72c140.94,0 237.14,-14.88 288.7,-43.53 51.56,-28.63 91.64,-76.77 121.45,-143.21 28.64,-66.49 43.52,-194.77 43.52,-383.82l0 -2797.74c0,-343.7 -8,-554.52 -22.87,-632.44 -16.04,-79.05 -41.29,-132.89 -75.66,-161.53 -34.36,-28.64 -79.05,-43.52 -132.89,-43.52 -57.29,0 -130.61,18.31 -219.98,53.84l-57.28 -123.73 914.26 -378.06 151.21 0z"/>
   <path class="fil1 str1" d="M12139.42 6605.32l30.63 6.69 -109 343.26 -980.99 0 0 -34.41 47.49 0c53.55,0 91.79,-17.2 114.71,-51.95 13.08,-19.78 19.48,-65.68 19.48,-137.34l0 -820.38c0,-79 -8.63,-128.43 -26.17,-148.16 -24.19,-27.43 -60.24,-41.14 -108.02,-41.14l-47.49 0 0 -34.41 573.65 0 0 34.41c-67.22,-0.63 -114.42,5.43 -141.8,18.52 -27.1,12.74 -45.6,29.32 -55.44,48.75 -9.89,19.78 -14.98,66.92 -14.98,141.17l0 799.31c0,51.95 5.09,87.33 14.98,106.76 7.32,13.37 19.1,22.97 34.71,29.32 15.31,6.05 64.06,9.26 145.97,9.26l92.42 0c97.55,0 165.74,-7.04 204.94,-21.38 39.21,-14.35 75.22,-39.84 107.74,-76.18 32.18,-36.3 64.7,-93.68 97.17,-172.1zm1189.09 -979.05c25.83,0 48.12,9.26 66.64,27.43 18.13,18.46 27.37,40.8 27.37,66.59 0,26.17 -9.25,48.8 -27.37,67.26 -18.52,18.81 -40.81,28.06 -66.64,28.06 -26.12,0 -48.75,-9.25 -67.22,-28.06 -18.8,-18.46 -28.06,-41.09 -28.06,-67.26 0,-25.79 9.26,-48.13 27.38,-66.59 18.52,-18.17 41.14,-27.43 67.9,-27.43zm76.81 447.46l0 688.43c0,53.21 3.83,88.59 11.78,106.13 7.65,17.83 19.13,30.91 34.45,39.49 15.26,8.63 43.32,13.08 83.79,13.08l0 34.41 -414.94 0 0 -34.41c41.44,0 69.5,-4.17 83.5,-12.11 14.35,-8 25.49,-21.38 34.12,-39.84 8.24,-18.52 12.41,-54.18 12.41,-106.76l0 -330.82c0,-92.12 -2.86,-151.69 -8.3,-179.12 -4.46,-19.76 -11.15,-33.48 -20.69,-41.1 -9.26,-7.99 -22,-11.82 -37.95,-11.82 -17.54,0 -38.58,4.8 -63.43,14.06l-13.04 -34.45 257.19 -105.17 41.1 0zm1330.85 182.95c61.84,-62.47 98.48,-98.47 109.67,-108.02 27.72,-23.6 57.67,-42.06 89.85,-55.15 32.17,-13.08 64.06,-19.78 95.61,-19.78 53.55,0 99.11,15.65 137.69,46.86 38.23,31.21 64.06,76.48 76.81,136.08 64.36,-75.21 118.54,-124.3 162.84,-147.86 44.3,-23.26 89.9,-35.08 136.71,-35.08 45.27,0 85.73,11.82 121.11,35.08 35.08,23.27 63.1,61.51 83.5,114.71 13.71,36.01 20.74,92.76 20.74,170.2l0 368.42c0,53.21 3.83,89.85 11.78,109.62 6.06,13.38 17.54,25.21 33.78,34.75 16.58,9.54 43.33,14.35 80.65,14.35l0 34.41 -418.78 0 0 -34.41 17.84 0c36.34,0 65.03,-7.02 85.39,-21.37 14.35,-9.89 24.57,-25.78 30.63,-47.49 2.52,-10.52 3.83,-40.47 3.83,-89.85l0 -368.13c0,-69.79 -8.28,-118.89 -25.2,-147.53 -24.53,-39.84 -63.44,-59.95 -117.28,-59.95 -32.81,0 -66.31,8.28 -99.74,24.86 -33.15,16.28 -73.62,47.21 -121.11,91.79l-1.95 10.52 3.84 40.17 0 408.26c0,58.01 3.2,94.31 9.59,108.65 6.69,14.05 18.8,26.17 36.64,35.71 17.83,9.54 48.41,14.35 91.44,14.35l0 34.41 -430.25 0 0 -34.41c46.86,0 79.04,-5.43 96.58,-16.57 17.55,-11.15 29.62,-28.07 36.36,-50.36 3.15,-10.52 4.74,-41.14 4.74,-91.79l0 -368.13c0,-69.79 -10.17,-120.15 -30.58,-151.07 -27.43,-40.12 -65.32,-60.23 -114.42,-60.23 -33.45,0 -66.59,9.26 -99.45,27.43 -51.27,27.38 -91.1,58.64 -118.87,93.05l0 458.95c0,55.78 3.83,91.79 11.48,108.65 7.67,16.57 19.15,29.02 34.41,37.6 14.98,8.28 45.61,12.45 91.8,12.45l0 34.41 -422.61 0 0 -34.41c39.21,0 66.64,-4.17 82.24,-12.45 15.61,-8.58 27.43,-21.67 35.67,-40.12 8,-18.17 12.12,-53.55 12.12,-106.13l0 -326.98c0,-93.74 -2.86,-154.27 -8.3,-181.7 -4.46,-20.69 -11.14,-34.74 -20.69,-42.36 -9.26,-7.99 -22,-11.82 -37.95,-11.82 -17.5,0 -38.23,4.8 -62.47,14.06l-14 -34.45 258.17 -105.17 40.12 0 0 182.95zm2290.51 -630.4c25.84,0 48.13,9.26 66.64,27.43 18.13,18.46 27.38,40.8 27.38,66.59 0,26.17 -9.26,48.8 -27.38,67.26 -18.5,18.81 -40.8,28.06 -66.64,28.06 -26.11,0 -48.75,-9.25 -67.21,-28.06 -18.8,-18.46 -28.06,-41.09 -28.06,-67.26 0,-25.79 9.26,-48.13 27.38,-66.59 18.5,-18.17 41.14,-27.43 67.89,-27.43zm76.82 447.46l0 688.43c0,53.21 3.83,88.59 11.77,106.13 7.67,17.83 19.15,30.91 34.46,39.49 15.26,8.63 43.32,13.08 83.79,13.08l0 34.41 -414.94 0 0 -34.41c41.43,0 69.49,-4.17 83.5,-12.11 14.35,-8 25.49,-21.38 34.11,-39.84 8.25,-18.52 12.41,-54.18 12.41,-106.76l0 -330.82c0,-92.12 -2.85,-151.69 -8.28,-179.12 -4.46,-19.76 -11.15,-33.48 -20.69,-41.1 -9.26,-7.99 -22,-11.82 -37.95,-11.82 -17.54,0 -38.58,4.8 -63.44,14.06l-13.04 -34.45 257.2 -105.17 41.1 0zm1325.12 -256.23l0 281.09 199.82 0 0 63.1 -199.82 1.94 0 554.86c0,55.43 7.95,93.05 23.9,112.19 15.61,19.43 36,28.98 60.86,28.98 20.75,0 40.47,-6.35 59.95,-19.43 19.1,-12.75 34.08,-31.89 44.59,-57.05l36.34 0c-21.67,61.51 -52.58,107.74 -92.42,138.95 -40.17,30.92 -81.27,46.53 -123.67,46.53 -28.69,0 -56.7,-7.95 -84.13,-23.9 -27.38,-15.94 -47.49,-38.86 -60.53,-68.53 -13.08,-29.61 -19.78,-75.21 -19.78,-137.05l0 -577.49 -135.74 0 0 -29.61c34.41,-13.71 69.45,-36.64 105.46,-68.87 36,-32.47 67.89,-71.05 96.24,-115.98 14.35,-23.59 34.45,-66.92 60.23,-129.74l28.69 0zm1263.92 604.25c-0.63,126.54 30.29,225.65 92.48,297.71 62.12,71.68 135.41,107.69 219.59,107.69 55.73,0 104.48,-15.27 145.91,-45.9 41.44,-30.24 76.19,-83.5 104.25,-158.71l28.69 18.8c-13.08,86.07 -51.03,164.14 -113.8,233.93 -62.81,69.83 -141.51,104.87 -235.82,104.87 -102.64,0 -190.6,-39.84 -263.58,-119.85 -72.99,-79.96 -109.63,-187.36 -109.63,-322.18 0,-145.97 37.6,-260.06 112.48,-341.67 74.92,-81.9 168.94,-122.71 282.05,-122.71 95.63,0 174.33,31.55 235.87,94.65 61.51,63.14 92.43,147.56 92.43,253.36l-590.92 0zm0 -53.51l395.85 0c-3.2,-54.81 -9.54,-93.38 -19.43,-115.68 -15.61,-34.75 -38.88,-62.18 -69.79,-81.96 -30.63,-20.06 -62.81,-29.95 -96.59,-29.95 -51.62,0 -97.85,20.12 -138.6,60.24 -40.81,40.17 -64.4,95.96 -71.44,167.34zm2149.34 488.23c-41.77,44.3 -82.58,75.9 -122.41,94.98 -39.84,19.15 -82.83,28.69 -128.72,28.69 -93.39,0 -175.01,-38.86 -244.79,-116.99 -69.78,-78.07 -104.53,-178.43 -104.53,-300.81 0,-122.41 38.58,-234.56 115.68,-336.24 77.44,-101.68 176.55,-152.36 298,-152.36 75.22,0 137.69,24.23 186.77,72.36l0 -158.38c0,-97.22 -2.22,-156.82 -7.02,-179.12 -4.8,-22.29 -12.11,-37.6 -22,-45.56 -10.17,-8 -22.63,-12.11 -37.6,-12.11 -16.24,0 -37.62,5.09 -64.7,14.98l-12.12 -34.41 256.27 -105.22 42.07 0 0 988.65c0,99.74 2.22,160.6 6.98,182.6 4.8,21.67 12.11,37.27 22.63,45.9 10.23,8.58 22.34,13.04 36.01,13.04 16.91,0 39.21,-5.39 67.55,-15.9l10.23 34.42 -255.31 105.16 -42.99 0 0 -123.67zm0 -65.33l0 -438.2c-3.83,-42.7 -15.02,-81.57 -33.78,-116.32 -18.5,-35.08 -43.37,-61.21 -74.29,-79.04 -30.91,-17.55 -60.86,-26.47 -90.18,-26.47 -54.81,0 -103.91,24.52 -146.9,73.62 -56.75,64.7 -85.1,159.06 -85.1,283.32 0,125.57 27.38,221.82 82.19,288.75 54.87,66.64 116.02,100.07 183.29,100.07 57.05,0 111.86,-28.69 164.77,-85.73z"/>
  </g>
 </g>
</svg>
